<svg id="Layer_1" enable-background="new 0 0 512 512" height="512" viewBox="0 0 512 512" width="512" xmlns="http://www.w3.org/2000/svg"><path d="m297.55 464.527c-25.722 4.175-57.285 4.19-83.1 0 13.045-28.977 13.096-55.54 41.55-55.54 28.416 0 28.633 26.845 41.55 55.54z"/><path d="m512 139.447c-1.21-5.38-15.79-24.32-54.04-50.03-59.913-40.262-109.844-51.51-115.71-41.8-3.86 6.43-11.66 9.32-18.78 6.95-31.368-10.451-101.709-11.073-134.94 0-7.12 2.37-14.92-.51-18.78-6.95-1.48-2.45-8.05-4.45-21.74-1.99-58.41 10.482-143.957 75.798-148.01 93.82.06 37.26 9.83 84.48 31.58 106.23 18.562 18.562 14.042 47.948 13.77 68.91 2.71-1.55 6.3-3.83 10.95-7.15 54.419-38.879 20.5-74.116 20.5-141.11 0-72.53 60.66-103.69 63.24-104.98 7.91-3.95 17.52-.75 21.47 7.15 3.94 7.89.76 17.47-7.1 21.44-2.09 1.08-45.61 24.14-45.61 76.39 0 11.34 1.28 22.21 2.94 32.76 3.08 2.42 5.3 5.96 5.94 10.14.75 4.86 18.32 120.01 18.32 201.9 0 56.53 22.08 56.53 29.33 56.53 6.431 0 9.457-1.643 12.51-4.31 17.991-17.147 14.747-86.36 78.16-86.36 63.519 0 60.122 69.283 78.18 86.38 2.868 2.658 6.256 4.29 12.49 4.29 7.64 0 13.2-2.26 17.5-7.1 5.4-6.07 11.83-19.57 11.83-49.43 0-81.89 17.57-197.04 18.32-201.9.64-4.18 2.86-7.72 5.94-10.14 1.66-10.55 2.94-21.42 2.94-32.76 0-52.39-43.76-75.44-45.63-76.4-7.9-3.95-11.07-13.54-7.12-21.44 3.95-7.91 13.6-11.1 21.51-7.14 2.58 1.29 63.24 32.45 63.24 104.98 0 66.989-33.923 102.228 20.5 141.11 4.65 3.32 8.24 5.6 10.95 7.15-.262-20.258-4.937-50.202 13.77-68.91 21.75-21.75 31.52-68.97 31.58-106.23zm-342.13 81.28c-12.52 0-22.67-10.15-22.67-22.67s10.15-22.67 22.67-22.67 22.66 10.15 22.66 22.67-10.14 22.67-22.66 22.67zm86.13 142.93c-30.2 0-52.27-34.38-52.27-52.27 0-45.513 104.54-45.5 104.54 0 0 17.89-22.07 52.27-52.27 52.27zm108.8-165.6c0 12.52-10.15 22.67-22.67 22.67s-22.66-10.15-22.66-22.67 10.14-22.67 22.66-22.67 22.67 10.15 22.67 22.67z"/><path d="m275.5 313.407c-2.78 6.72-11.86 18.25-19.5 18.25s-16.72-11.53-19.5-18.25c9.623-5.526 29.353-5.54 39 0z"/></svg>