<svg xmlns="http://www.w3.org/2000/svg" height="512pt" version="1.1" viewBox="0 0 512 512.00003" width="512pt">
<g id="surface1">
<path d="M 256 512 L 256 0 C 114.617188 0 0 114.617188 0 256 C 0 397.382812 114.617188 512 256 512 Z M 256 512 " style=" stroke:none;fill-rule:nonzero;fill:rgb(81.960784%,82.745098%,83.137255%);fill-opacity:1;" />
<path d="M 256 256 L 256 512 C 397.382812 512 512 397.382812 512 256 C 512 114.617188 397.382812 0 256 0 Z M 256 256 " style=" stroke:none;fill-rule:nonzero;fill:rgb(90.196078%,90.588235%,90.980392%);fill-opacity:1;" />
<path d="M 256 370.757812 C 251.125 370.757812 247.171875 366.804688 247.171875 361.929688 L 247.171875 150.070312 C 247.171875 145.195312 251.125 141.242188 256 141.242188 C 260.875 141.242188 264.828125 145.195312 264.828125 150.070312 L 264.828125 361.929688 C 264.828125 366.804688 260.875 370.757812 256 370.757812 Z M 256 370.757812 " style=" stroke:none;fill-rule:nonzero;fill:rgb(57.647059%,58.431373%,59.607843%);fill-opacity:1;" />
<path d="M 361.929688 264.828125 L 150.070312 264.828125 C 145.195312 264.828125 141.242188 260.875 141.242188 256 C 141.242188 251.125 145.191406 247.171875 150.070312 247.171875 L 361.929688 247.171875 C 366.804688 247.171875 370.757812 251.125 370.757812 256 C 370.757812 260.875 366.804688 264.828125 361.929688 264.828125 Z M 361.929688 264.828125 " style=" stroke:none;fill-rule:nonzero;fill:rgb(57.647059%,58.431373%,59.607843%);fill-opacity:1;" />
</g>
</svg>