<svg xmlns="http://www.w3.org/2000/svg" height="511.99921pt" version="1.1" viewBox="1 1 511.99921 511.99921" width="511.99921pt">
<g id="surface1">
<path d="M 256 0 L 256 512 C 397.382812 512 512 397.382812 512 256 C 512 114.617188 397.382812 0 256 0 Z M 256 0 " style=" stroke:none;fill-rule:nonzero;fill:rgb(90.196078%,90.588235%,90.980392%);fill-opacity:1;" />
<path d="M 150.070312 256 L 256 256 L 256 0 C 114.617188 0 0 114.617188 0 256 C 0 397.382812 114.617188 512 256 512 L 256 256 Z M 150.070312 256 " style=" stroke:none;fill-rule:nonzero;fill:rgb(81.960784%,82.745098%,83.137255%);fill-opacity:1;" />
<path d="M 361.929688 264.828125 L 150.070312 264.828125 C 145.195312 264.828125 141.242188 260.875 141.242188 256 C 141.242188 251.125 145.191406 247.171875 150.070312 247.171875 L 361.929688 247.171875 C 366.804688 247.171875 370.757812 251.125 370.757812 256 C 370.757812 260.875 366.804688 264.828125 361.929688 264.828125 Z M 361.929688 264.828125 " style=" stroke:none;fill-rule:nonzero;fill:rgb(57.647059%,58.431373%,59.607843%);fill-opacity:1;" />
</g>
</svg>